<?xml version="1.0" standalone="no"?>
<!DOCTYPE svg PUBLIC "-//W3C//DTD SVG 20010904//EN"
 "http://www.w3.org/TR/2001/REC-SVG-20010904/DTD/svg10.dtd">
<svg version="1.0" xmlns="http://www.w3.org/2000/svg"
 width="270.000000pt" height="537.000000pt" viewBox="0 0 270.000000 537.000000"
 preserveAspectRatio="xMidYMid meet">

<g transform="translate(0.000000,537.000000) scale(0.100000,-0.100000)"
fill="#000000" stroke="none">
<path d="M325 5351 c-125 -36 -202 -100 -253 -209 -27 -57 -27 -58 -30 -334
-3 -264 -4 -278 -22 -288 -17 -9 -20 -22 -20 -90 0 -69 3 -81 20 -90 18 -9 20
-21 20 -99 0 -75 -3 -91 -20 -106 -19 -17 -20 -31 -20 -191 0 -163 1 -175 20
-186 29 -18 29 -102 0 -120 -19 -12 -20 -24 -20 -190 0 -167 1 -178 20 -188
20 -10 20 -25 22 -1493 l3 -1482 32 -66 c39 -79 102 -140 181 -177 l57 -27
1038 2 1038 2 54 25 c76 34 139 97 178 175 l32 66 3 1547 c2 1532 2 1548 22
1560 19 12 20 24 20 305 0 279 -1 292 -20 306 -19 13 -19 29 -22 548 l-3 534
-27 57 c-33 71 -93 137 -156 171 -106 57 -91 57 -1132 56 -878 0 -960 -2
-1015 -18z m34 -198 c-2 -31 -3 -33 -6 -10 -2 15 -9 27 -14 27 -6 0 -7 5 -4
10 13 22 25 8 24 -27z m63 13 c7 -37 -5 -51 -31 -37 -21 12 -20 20 2 49 14 18
24 15 29 -12z m88 -11 c0 -28 -4 -35 -19 -35 -28 0 -37 20 -9 21 13 0 18 3 11
5 -7 3 -9 12 -6 20 4 10 0 12 -13 7 -12 -4 -15 -3 -10 5 4 7 16 12 27 12 15 0
19 -7 19 -35z m55 25 c4 -6 1 -17 -5 -25 -9 -11 -9 -15 -1 -15 6 0 11 -4 11
-10 0 -5 -11 -10 -25 -10 -28 0 -32 12 -10 30 20 17 19 31 -2 23 -11 -4 -14
-3 -9 5 9 15 33 16 41 2z m1585 -51 c0 -26 -3 -29 -30 -29 -24 0 -30 4 -30 23
0 13 9 26 23 33 30 14 37 8 37 -27z m44 -21 c7 -5 5 -8 -6 -8 -14 0 -18 8 -17
33 2 27 2 28 6 7 3 -14 10 -28 17 -32z m28 22 c-2 -16 -5 -30 -7 -30 -2 0 -5
14 -7 30 -3 19 0 30 7 30 7 0 10 -11 7 -30z m50 21 c-14 -9 -13 -32 3 -43 6
-4 2 -8 -7 -8 -13 0 -18 8 -18 30 0 22 5 30 18 30 13 0 14 -2 4 -9z m118 -16
c0 -22 -4 -25 -35 -25 -27 0 -35 4 -35 18 0 25 9 32 42 32 23 0 28 -4 28 -25z
m-314 -32 c-11 -11 -19 6 -11 24 8 17 8 17 12 0 3 -10 2 -21 -1 -24z m-26 7
c0 -5 -4 -10 -10 -10 -5 0 -10 5 -10 10 0 6 5 10 10 10 6 0 10 -4 10 -10z
m-87 -209 c2 -11 1 -23 -4 -28 -6 -6 1 -19 16 -33 14 -13 25 -18 25 -12 0 15
23 15 37 1 17 -17 4 -39 -22 -39 -32 0 -95 61 -95 92 0 41 33 55 43 19z
m-1573 -11 c0 -6 -28 -10 -65 -10 -37 0 -65 4 -65 10 0 6 28 10 65 10 37 0 65
-4 65 -10z m2038 -37 c-3 -46 -4 -48 -36 -51 -43 -4 -62 12 -62 53 0 41 5 45
57 45 l44 0 -3 -47z m52 -3 c0 -38 -2 -40 -20 -30 -22 12 -27 55 -7 63 24 10
27 7 27 -33z m-2090 0 c0 -6 -28 -10 -65 -10 -37 0 -65 4 -65 10 0 6 28 10 65
10 37 0 65 -4 65 -10z m0 -40 c0 -6 -26 -10 -59 -10 -33 0 -63 5 -66 10 -4 6
18 10 59 10 37 0 66 -4 66 -10z m730 -241 c0 -41 24 -33 28 9 4 39 22 43 22 5
0 -39 -13 -55 -41 -51 -20 2 -25 10 -27 42 -2 25 0 36 7 31 6 -3 11 -20 11
-36z m90 21 c10 0 21 -6 23 -12 4 -10 8 -10 15 0 11 16 43 13 49 -4 2 -6 -7
-16 -19 -23 -13 -6 -15 -9 -5 -7 9 3 17 1 17 -4 0 -15 -37 -12 -44 3 -5 10 -7
10 -12 0 -3 -7 -17 -13 -30 -13 -22 0 -24 4 -23 43 0 23 3 36 6 30 2 -7 13
-13 23 -13z m323 -3 c11 -4 17 -16 16 -34 -1 -26 -1 -26 -7 -5 -4 13 -11 23
-17 23 -5 0 -13 -10 -17 -23 -4 -16 -6 -10 -7 22 0 25 3 40 7 34 4 -6 15 -13
25 -17z m51 -27 c1 -16 -2 -30 -5 -30 -8 0 -17 58 -11 65 9 9 15 -4 16 -35z
m-252 18 c-5 -7 -12 -22 -15 -33 -3 -13 -5 -9 -6 13 -1 23 3 32 15 32 12 0 14
-3 6 -12z m58 1 c0 -5 -6 -7 -12 -4 -7 4 -5 0 6 -9 10 -8 15 -19 11 -25 -8
-14 -45 -14 -45 -1 0 5 8 7 18 4 16 -5 16 -5 0 9 -24 19 -23 37 2 37 11 0 20
-5 20 -11z m27 -36 c-3 -10 -5 -2 -5 17 0 19 2 27 5 18 2 -10 2 -26 0 -35z
m68 36 c4 -6 0 -9 -11 -7 -11 2 -20 -4 -22 -15 -3 -15 0 -18 18 -12 15 5 20 4
16 -4 -19 -30 -63 0 -50 34 7 17 40 20 49 4z m1065 -2204 c0 -2023 0 -2056
-20 -2094 -24 -49 -70 -94 -123 -125 l-42 -24 -657 -5 c-613 -5 -658 -5 -658
11 0 14 2 15 10 2 5 -8 12 -11 16 -7 12 12 -11 28 -29 21 -9 -3 -17 -14 -18
-23 0 -11 -3 -10 -9 6 -9 21 -17 23 -72 14 -5 0 -8 -9 -9 -18 0 -16 -1 -16 -8
1 -5 13 -18 20 -39 21 -26 1 -32 -2 -32 -19 0 -21 0 -21 -18 1 -15 19 -32 22
-74 14 -3 0 -9 -9 -11 -18 -4 -15 -5 -14 -6 2 -1 29 -39 30 -51 2 -6 -16 -9
-18 -9 -5 -1 23 -20 33 -34 19 -9 -9 -8 -11 4 -6 10 4 16 0 16 -9 0 -8 -9 -14
-19 -13 -10 1 -18 7 -18 14 0 19 -18 16 -23 -4 -3 -12 -5 -8 -6 9 -1 17 -8 29
-21 33 -27 9 -40 -1 -40 -32 0 -25 -1 -26 -52 -19 -29 3 -74 6 -100 6 l-48 0
0 50 c0 60 -16 65 -61 21 l-29 -29 -34 41 c-18 23 -43 61 -55 84 l-21 42 0
2046 0 2045 1200 0 1200 0 0 -2055z m-1955 -2235 c0 -7 -6 -15 -12 -17 -8 -3
-13 4 -13 17 0 13 5 20 13 18 6 -3 12 -11 12 -18z m139 -11 c-3 -5 -10 -7 -15
-3 -5 3 -7 10 -3 15 3 5 10 7 15 3 5 -3 7 -10 3 -15z m96 6 c0 -5 -11 -11 -25
-11 -23 -2 -32 6 -20 17 8 9 45 4 45 -6z m150 -6 c0 -5 -4 -9 -10 -9 -5 0 -10
7 -10 16 0 8 5 12 10 9 6 -3 10 -10 10 -16z m-90 1 c0 -5 -4 -10 -10 -10 -5 0
-10 5 -10 10 0 6 5 10 10 10 6 0 10 -4 10 -10z m30 0 c0 -5 -4 -10 -10 -10 -5
0 -10 5 -10 10 0 6 5 10 10 10 6 0 10 -4 10 -10z m90 0 c0 -5 -4 -10 -10 -10
-5 0 -10 5 -10 10 0 6 5 10 10 10 6 0 10 -4 10 -10z"/>
<path d="M1200 4560 c0 -11 5 -20 10 -20 6 0 10 9 10 20 0 11 -4 20 -10 20 -5
0 -10 -9 -10 -20z"/>
<path d="M2254 4279 c15 -17 26 -43 26 -59 0 -16 7 -30 15 -34 12 -4 15 3 15
31 0 26 8 45 27 65 l27 28 -68 0 -68 0 26 -31z"/>
<path d="M290 4251 c0 -16 5 -33 10 -36 6 -3 10 1 10 9 0 10 9 16 21 16 32 0
20 34 -14 38 -24 3 -27 0 -27 -27z m40 9 c0 -5 -4 -10 -10 -10 -5 0 -10 5 -10
10 0 6 5 10 10 10 6 0 10 -4 10 -10z"/>
<path d="M498 4269 c-6 -17 2 -59 11 -59 8 0 6 58 -2 66 -3 3 -7 0 -9 -7z"/>
<path d="M860 4251 c0 -17 5 -33 10 -36 6 -4 10 8 10 29 0 20 -4 36 -10 36 -5
0 -10 -13 -10 -29z"/>
<path d="M890 4247 c0 -30 2 -33 33 -32 26 0 33 4 35 24 3 21 0 23 -22 19 -18
-4 -26 -1 -26 8 0 8 -4 14 -10 14 -5 0 -10 -15 -10 -33z"/>
<path d="M1040 4245 c0 -28 4 -35 19 -35 26 0 44 25 36 50 -4 13 -15 20 -31
20 -21 0 -24 -5 -24 -35z m38 2 c2 -10 -3 -17 -12 -17 -10 0 -16 9 -16 21 0
24 23 21 28 -4z"/>
<path d="M1288 4269 c-2 -7 -3 -23 0 -35 3 -18 10 -22 35 -21 32 2 51 27 20
27 -15 0 -16 2 -3 11 12 8 11 10 -5 7 -11 -2 -20 -8 -20 -15 0 -6 -4 -15 -9
-20 -5 -4 -7 1 -4 13 6 25 -7 55 -14 33z"/>
<path d="M362 4238 c4 -30 43 -33 43 -3 0 13 -8 21 -23 23 -20 3 -23 0 -20
-20z m28 -3 c0 -8 -4 -15 -10 -15 -5 0 -10 7 -10 15 0 8 5 15 10 15 6 0 10 -7
10 -15z"/>
<path d="M420 4234 c0 -18 5 -25 17 -22 23 4 29 28 6 29 -16 0 -16 1 2 9 19 8
19 9 -2 9 -18 1 -23 -5 -23 -25z"/>
<path d="M472 4235 c0 -16 2 -22 5 -12 2 9 2 23 0 30 -3 6 -5 -1 -5 -18z"/>
<path d="M532 4235 c0 -16 2 -22 5 -12 2 9 2 23 0 30 -3 6 -5 -1 -5 -18z"/>
<path d="M553 4244 c-3 -8 -1 -20 5 -26 16 -16 42 -2 42 22 0 24 -38 28 -47 4z
m37 -2 c0 -13 -12 -22 -22 -16 -10 6 -1 24 13 24 5 0 9 -4 9 -8z"/>
<path d="M610 4235 c0 -31 17 -33 23 -2 4 22 4 22 15 -3 l11 -25 0 28 c1 22
-3 27 -24 27 -20 0 -25 -5 -25 -25z"/>
<path d="M672 4238 c5 -34 38 -37 38 -4 0 20 -5 26 -21 26 -15 0 -20 -5 -17
-22z"/>
<path d="M720 4241 c0 -11 5 -23 10 -26 6 -3 10 3 10 14 0 28 18 27 23 -1 4
-20 4 -19 6 5 1 23 -3 27 -24 27 -18 0 -25 -5 -25 -19z"/>
<path d="M810 4235 c0 -18 5 -25 20 -25 15 0 20 7 20 25 0 18 -5 25 -20 25
-15 0 -20 -7 -20 -25z"/>
<path d="M971 4233 c0 -16 3 -22 6 -13 3 8 10 21 16 28 7 8 5 12 -7 12 -11 0
-16 -8 -15 -27z"/>
<path d="M1112 4238 c5 -34 38 -37 38 -4 0 20 -5 26 -21 26 -15 0 -20 -5 -17
-22z"/>
<path d="M1167 4233 c-6 -34 -7 -34 21 -26 29 7 31 53 3 53 -12 0 -20 -9 -24
-27z m33 2 c0 -8 -4 -15 -10 -15 -5 0 -10 7 -10 15 0 8 5 15 10 15 6 0 10 -7
10 -15z"/>
<path d="M1223 4244 c-3 -8 -1 -20 5 -26 16 -16 42 -2 42 22 0 24 -38 28 -47
4z m37 -9 c0 -8 -4 -15 -9 -15 -13 0 -22 16 -14 24 11 11 23 6 23 -9z"/>
<path d="M1397 4241 c-6 -24 0 -31 25 -31 13 0 18 7 18 25 0 31 -35 35 -43 6z"/>
<path d="M1450 4236 c0 -32 8 -33 19 -3 l9 22 11 -25 11 -25 -3 25 c-1 17 -9
26 -24 28 -19 3 -23 -1 -23 -22z"/>
<path d="M1519 4251 c9 -6 10 -11 2 -15 -19 -12 -12 -26 12 -26 16 0 18 3 8 9
-9 6 -10 11 -2 15 19 12 12 26 -11 26 -17 0 -19 -3 -9 -9z"/>
<path d="M1562 4238 c5 -34 38 -37 38 -4 0 20 -5 26 -21 26 -15 0 -20 -5 -17
-22z"/>
<path d="M1610 4241 c0 -11 5 -23 10 -26 6 -4 10 5 10 19 0 14 -4 26 -10 26
-5 0 -10 -9 -10 -19z"/>
<path d="M1643 4228 c2 -17 9 -34 16 -36 8 -3 11 0 7 7 -5 7 -1 9 8 5 12 -5
16 1 16 25 0 27 -4 31 -26 31 -22 0 -25 -3 -21 -32z m27 12 c0 -5 -4 -10 -10
-10 -5 0 -10 5 -10 10 0 6 5 10 10 10 6 0 10 -4 10 -10z"/>
<path d="M1700 4239 c0 -24 29 -37 41 -18 6 10 9 10 9 2 0 -7 5 -13 10 -13 6
0 10 9 10 20 0 27 18 25 23 -2 4 -20 4 -20 6 4 1 26 -1 27 -49 26 -43 0 -50
-3 -50 -19z"/>
<path d="M262 3818 l3 -83 100 0 100 0 3 83 3 82 -106 0 -106 0 3 -82z m198
-18 l0 -50 -95 0 -95 0 0 50 0 50 95 0 95 0 0 -50z"/>
<path d="M320 3830 c0 -6 27 -10 60 -10 33 0 60 4 60 10 0 6 -27 10 -60 10
-33 0 -60 -4 -60 -10z"/>
<path d="M320 3800 c0 -6 27 -10 60 -10 33 0 60 4 60 10 0 6 -27 10 -60 10
-33 0 -60 -4 -60 -10z"/>
<path d="M320 3770 c0 -6 27 -10 60 -10 33 0 60 4 60 10 0 6 -27 10 -60 10
-33 0 -60 -4 -60 -10z"/>
<path d="M520 3815 c0 -34 2 -36 28 -33 23 3 27 8 27 33 0 25 -4 30 -27 33
-26 3 -28 1 -28 -33z m42 13 c6 -17 -1 -38 -13 -38 -5 0 -9 11 -9 25 0 26 14
34 22 13z"/>
<path d="M768 3839 c-6 -17 2 -59 11 -59 8 0 6 58 -2 66 -3 3 -7 0 -9 -7z"/>
<path d="M998 3839 c-6 -17 2 -59 11 -59 8 0 6 58 -2 66 -3 3 -7 0 -9 -7z"/>
<path d="M594 3816 c-8 -20 3 -36 24 -35 14 0 13 2 -3 9 -19 8 -19 9 3 9 14 1
22 6 20 14 -7 18 -37 21 -44 3z"/>
<path d="M650 3793 c0 -21 4 -33 8 -28 14 20 50 35 54 23 7 -19 38 0 38 22 0
13 -7 20 -20 20 -11 0 -20 -5 -20 -12 0 -9 -3 -9 -12 0 -7 7 -20 12 -30 12
-14 0 -18 -8 -18 -37z m30 12 c0 -8 -4 -15 -10 -15 -5 0 -10 7 -10 15 0 8 5
15 10 15 6 0 10 -7 10 -15z m60 0 c0 -8 -4 -15 -10 -15 -5 0 -10 7 -10 15 0 8
5 15 10 15 6 0 10 -7 10 -15z"/>
<path d="M800 3793 c0 -21 4 -33 8 -27 4 6 15 13 25 17 25 9 17 41 -11 45 -19
3 -22 -1 -22 -35z m34 6 c-3 -5 -10 -7 -15 -3 -5 3 -7 10 -3 15 3 5 10 7 15 3
5 -3 7 -10 3 -15z"/>
<path d="M863 3814 c-12 -32 28 -47 46 -16 10 16 10 16 11 0 0 -10 6 -18 14
-18 22 0 30 19 11 26 -12 5 -13 9 -5 14 6 4 -7 7 -30 7 -25 0 -44 -5 -47 -13z
m27 -9 c0 -8 -4 -15 -10 -15 -5 0 -10 7 -10 15 0 8 5 15 10 15 6 0 10 -7 10
-15z"/>
<path d="M972 3805 c0 -16 2 -22 5 -12 2 9 2 23 0 30 -3 6 -5 -1 -5 -18z"/>
<path d="M1032 3805 c0 -16 2 -22 5 -12 2 9 2 23 0 30 -3 6 -5 -1 -5 -18z"/>
<path d="M1056 3821 c-10 -16 6 -42 23 -39 9 2 17 13 19 26 3 16 -2 22 -17 22
-11 0 -22 -4 -25 -9z m34 -16 c0 -8 -4 -15 -10 -15 -5 0 -10 7 -10 15 0 8 5
15 10 15 6 0 10 -7 10 -15z"/>
<path d="M1110 3805 c0 -31 17 -33 23 -2 4 22 4 22 15 -3 l11 -25 0 28 c1 22
-3 27 -24 27 -20 0 -25 -5 -25 -25z"/>
<path d="M1174 3816 c-8 -20 3 -36 24 -35 14 0 13 2 -3 9 -19 8 -19 9 3 9 14
1 22 6 20 14 -7 18 -37 21 -44 3z"/>
<path d="M1231 3803 c2 -24 2 -25 6 -5 2 12 8 22 13 22 5 0 11 -10 13 -22 4
-20 4 -19 6 5 1 21 -4 27 -19 27 -15 0 -20 -6 -19 -27z"/>
<path d="M381 3436 c-8 -9 -34 -16 -64 -18 l-52 -3 -3 -77 -3 -78 106 0 106 0
-3 93 -3 92 -36 3 c-23 2 -40 -2 -48 -12z m69 -86 l0 -70 -85 0 -85 0 0 60 0
60 49 0 c28 0 53 5 56 10 3 6 19 10 36 10 l29 0 0 -70z"/>
<path d="M347 3375 c-33 -24 -16 -85 24 -85 18 0 45 53 34 69 -13 22 -40 29
-58 16z m41 -39 c-4 -31 -38 -34 -38 -3 0 29 7 37 27 30 8 -3 13 -15 11 -27z"/>
<path d="M526 3416 c5 -37 12 -45 25 -26 8 13 10 13 18 0 12 -18 17 -13 26 25
7 29 7 29 -8 10 -15 -18 -16 -18 -17 -2 0 18 -20 25 -20 7 0 -14 -18 -12 -23
3 -2 6 -3 -1 -1 -17z"/>
<path d="M913 3415 c0 -22 2 -30 4 -17 2 12 2 30 0 40 -3 9 -5 -1 -4 -23z"/>
<path d="M690 3431 c-8 -6 -18 -7 -22 -5 -4 3 -8 -7 -8 -22 l0 -26 20 23 19
24 1 -22 c0 -13 5 -23 10 -23 6 0 10 14 10 30 0 32 -6 36 -30 21z"/>
<path d="M606 3415 c-8 -22 1 -35 25 -35 15 0 20 6 17 22 -4 27 -33 36 -42 13z"/>
<path d="M730 3396 c0 -20 5 -36 10 -36 6 0 10 5 10 10 0 6 7 10 16 10 25 0
13 44 -13 48 -20 3 -23 -1 -23 -32z m40 3 c0 -5 -4 -9 -10 -9 -5 0 -10 7 -10
16 0 8 5 12 10 9 6 -3 10 -10 10 -16z"/>
<path d="M799 3428 c-7 -33 -7 -48 2 -48 5 0 7 5 4 10 -3 6 -1 10 4 10 6 0 11
-4 11 -10 0 -5 5 -10 11 -10 18 0 5 45 -13 48 -10 2 -18 2 -19 0z"/>
<path d="M851 3393 c0 -21 3 -32 6 -25 2 6 11 12 18 12 8 0 16 4 19 9 10 16
-5 41 -25 41 -15 0 -19 -7 -18 -37z m25 0 c-10 -10 -19 5 -10 18 6 11 8 11 12
0 2 -7 1 -15 -2 -18z"/>
<path d="M934 3415 c-8 -19 3 -35 24 -34 14 0 13 2 -3 9 -19 8 -19 9 2 9 16 1
21 6 17 16 -8 19 -33 19 -40 0z"/>
<path d="M991 3401 c1 -17 3 -20 6 -8 2 9 9 17 14 17 5 0 9 4 9 8 0 5 -7 9
-15 9 -10 0 -15 -9 -14 -26z"/>
<path d="M1026 3415 c-8 -22 1 -35 25 -35 15 0 20 6 17 22 -4 27 -33 36 -42
13z"/>
<path d="M525 3305 c9 -44 23 -53 35 -21 14 38 12 56 -4 28 l-12 -23 -12 23
c-12 22 -12 21 -7 -7z"/>
<path d="M801 3295 c0 -38 1 -39 11 -15 11 25 11 25 15 3 5 -29 23 -30 23 -3
0 11 -8 24 -17 27 -10 4 -21 11 -25 17 -4 6 -7 -7 -7 -29z"/>
<path d="M580 3305 c-16 -19 -5 -47 17 -43 22 4 29 43 9 51 -8 3 -20 -1 -26
-8z m30 -26 c0 -5 -4 -9 -10 -9 -5 0 -10 7 -10 16 0 8 5 12 10 9 6 -3 10 -10
10 -16z"/>
<path d="M749 3304 c-10 -12 -9 -18 4 -32 14 -13 19 -14 29 -3 11 11 10 13 -4
8 -12 -4 -18 -1 -18 8 0 7 8 15 18 17 16 3 16 4 0 10 -10 4 -22 1 -29 -8z"/>
<path d="M631 3283 c0 -16 3 -22 6 -13 3 8 10 21 16 28 7 8 5 12 -7 12 -11 0
-16 -8 -15 -27z"/>
<path d="M673 3285 c0 -14 5 -25 13 -25 19 0 29 21 14 30 -10 6 -9 9 1 13 9 3
6 6 -7 6 -16 1 -21 -5 -21 -24z"/>
<path d="M722 3285 c0 -16 2 -22 5 -12 2 9 2 23 0 30 -3 6 -5 -1 -5 -18z"/>
<path d="M860 3290 c0 -24 18 -36 33 -21 9 9 8 11 -4 6 -10 -4 -16 0 -16 10 0
21 13 19 35 -6 l19 -20 5 24 c4 23 2 25 -34 25 -31 1 -38 -3 -38 -18z"/>
<path d="M953 3290 c1 -17 9 -26 25 -28 18 -3 22 1 22 22 0 32 -17 34 -23 4
-4 -23 -4 -23 -15 2 l-12 25 3 -25z"/>
<path d="M1011 3283 l0 -28 11 25 11 25 7 -25 c6 -21 8 -22 15 -8 9 22 -1 38
-26 38 -14 0 -19 -7 -18 -27z"/>
<path d="M1072 3279 c3 -40 17 -47 38 -21 13 15 20 18 29 9 8 -8 14 -8 24 2
10 10 9 11 -5 6 -13 -5 -18 -2 -18 10 0 11 5 15 15 11 8 -3 15 -1 15 3 0 5
-23 9 -50 9 -50 1 -50 1 -48 -29z m28 11 c0 -5 -4 -10 -10 -10 -5 0 -10 5 -10
10 0 6 5 10 10 10 6 0 10 -4 10 -10z"/>
<path d="M1180 3285 c0 -31 8 -32 20 -2 6 16 9 17 9 5 1 -28 21 -31 21 -4 0
21 -5 26 -25 26 -20 0 -25 -5 -25 -25z"/>
<path d="M295 2953 c-36 -103 -40 -121 -26 -137 17 -20 143 -23 159 -3 13 16
46 136 40 143 -3 3 -15 -27 -27 -65 l-22 -71 -75 0 c-48 0 -73 4 -69 10 3 6
35 10 70 10 l63 0 21 62 c33 97 33 98 -48 98 l-69 0 -17 -47z m125 7 c0 -5
-20 -10 -45 -10 -25 0 -45 5 -45 10 0 6 20 10 45 10 25 0 45 -4 45 -10z m-10
-30 c0 -5 -21 -10 -46 -10 -27 0 -43 4 -39 10 3 6 24 10 46 10 21 0 39 -4 39
-10z"/>
<path d="M520 2895 c0 -30 3 -35 24 -35 31 0 36 8 29 43 -4 20 -11 27 -29 27
-21 0 -24 -5 -24 -35z m40 15 c0 -5 -4 -10 -10 -10 -5 0 -10 5 -10 10 0 6 5
10 10 10 6 0 10 -4 10 -10z m0 -30 c0 -5 -4 -10 -10 -10 -5 0 -10 5 -10 10 0
6 5 10 10 10 6 0 10 -4 10 -10z"/>
<path d="M700 2894 c0 -31 2 -35 15 -24 10 9 15 9 15 1 0 -6 5 -11 10 -11 7 0
7 6 1 19 -6 10 -7 21 -3 25 3 4 -2 4 -12 0 -13 -5 -17 -4 -12 4 3 6 2 13 -4
17 -6 4 -10 -8 -10 -31z"/>
<path d="M762 2895 c0 -22 2 -34 5 -27 4 9 8 10 18 2 10 -8 13 -5 11 15 0 15
-6 23 -13 21 -6 -3 -14 3 -16 12 -3 9 -5 -1 -5 -23z"/>
<path d="M932 2894 c4 -36 24 -42 22 -7 0 15 -6 29 -13 31 -8 3 -11 -5 -9 -24z"/>
<path d="M590 2885 c0 -18 5 -25 20 -25 15 0 20 7 20 25 0 18 -5 25 -20 25
-15 0 -20 -7 -20 -25z"/>
<path d="M640 2884 c0 -14 4 -23 10 -19 6 3 10 13 10 21 0 23 18 16 23 -8 4
-20 4 -19 6 5 1 23 -3 27 -24 27 -20 0 -25 -5 -25 -26z"/>
<path d="M814 2895 c-4 -9 -2 -21 4 -27 15 -15 44 -1 40 19 -4 23 -36 29 -44
8z m36 -3 c0 -13 -12 -22 -22 -16 -10 6 -1 24 13 24 5 0 9 -4 9 -8z"/>
<path d="M871 2883 c0 -27 1 -27 9 -5 5 12 12 22 15 22 3 0 10 -10 15 -22 10
-23 10 -23 7 2 -1 17 -9 26 -24 28 -19 3 -23 -1 -22 -25z"/>
<path d="M964 2895 c-7 -18 3 -35 21 -35 15 0 28 27 19 41 -8 14 -34 11 -40
-6z"/>
<path d="M1021 2883 c2 -24 2 -25 6 -5 2 12 8 22 13 22 5 0 11 -10 13 -22 4
-20 4 -19 6 5 1 21 -4 27 -19 27 -15 0 -20 -6 -19 -27z"/>
<path d="M262 2443 l-2 -83 108 2 107 2 -102 3 -102 4 -4 77 -3 77 -2 -82z"/>
<path d="M414 2491 c3 -4 -6 -18 -19 -31 -19 -18 -28 -20 -38 -12 -11 9 -20 5
-41 -17 -34 -35 -26 -64 8 -32 15 14 26 17 36 11 11 -7 24 -1 47 22 17 16 36
27 42 24 7 -5 11 3 11 18 0 21 -5 26 -26 26 -14 0 -23 -4 -20 -9z"/>
<path d="M520 2435 c0 -30 3 -35 24 -35 31 0 36 8 29 43 -4 20 -11 27 -29 27
-21 0 -24 -5 -24 -35z m40 15 c0 -5 -4 -10 -10 -10 -5 0 -10 5 -10 10 0 6 5
10 10 10 6 0 10 -4 10 -10z m0 -30 c0 -5 -4 -10 -10 -10 -5 0 -10 5 -10 10 0
6 5 10 10 10 6 0 10 -4 10 -10z"/>
<path d="M647 2463 c-7 -11 3 -63 12 -63 8 0 6 58 -2 66 -3 3 -7 2 -10 -3z"/>
<path d="M763 2435 c0 -22 2 -30 4 -17 2 12 2 30 0 40 -3 9 -5 -1 -4 -23z"/>
<path d="M1051 2446 c-16 -19 -8 -46 13 -46 20 0 29 31 13 47 -12 12 -16 12
-26 -1z"/>
<path d="M592 2428 c2 -13 10 -23 18 -23 8 0 16 10 18 23 3 17 -2 22 -18 22
-16 0 -21 -5 -18 -22z"/>
<path d="M682 2428 c2 -13 10 -23 18 -23 8 0 16 10 18 23 3 17 -2 22 -18 22
-16 0 -21 -5 -18 -22z"/>
<path d="M730 2425 c0 -14 5 -25 10 -25 6 0 10 11 10 25 0 14 -4 25 -10 25 -5
0 -10 -11 -10 -25z"/>
<path d="M780 2425 c0 -14 5 -25 10 -25 6 0 10 11 10 25 0 14 -4 25 -10 25 -5
0 -10 -11 -10 -25z"/>
<path d="M812 2419 c1 -17 6 -33 11 -36 14 -8 37 18 37 43 0 19 -5 24 -25 24
-22 0 -25 -4 -23 -31z m28 11 c0 -5 -4 -10 -10 -10 -5 0 -10 5 -10 10 0 6 5
10 10 10 6 0 10 -4 10 -10z"/>
<path d="M870 2425 c0 -14 4 -25 9 -25 4 0 6 11 3 25 -2 14 -6 25 -8 25 -2 0
-4 -11 -4 -25z"/>
<path d="M902 2425 c0 -16 2 -22 5 -12 2 9 2 23 0 30 -3 6 -5 -1 -5 -18z"/>
<path d="M920 2431 c0 -11 5 -23 10 -26 6 -3 10 3 10 14 0 28 18 27 23 -1 4
-20 4 -19 6 5 1 23 -3 27 -24 27 -18 0 -25 -5 -25 -19z"/>
<path d="M983 2418 c2 -25 8 -33 23 -33 14 0 20 8 22 33 3 29 1 32 -23 32 -24
0 -26 -3 -22 -32z m33 -1 c1 -9 -2 -19 -7 -23 -5 -3 -9 -1 -9 5 0 5 -3 17 -7
27 -4 11 -2 15 7 12 7 -2 14 -12 16 -21z"/>
<path d="M1101 2423 c2 -24 2 -25 6 -5 2 12 8 22 13 22 5 0 11 -10 13 -22 4
-20 4 -19 6 5 1 21 -4 27 -19 27 -15 0 -20 -6 -19 -27z"/>
<path d="M280 2006 c0 -72 1 -75 35 -105 20 -17 42 -31 50 -31 8 0 30 14 50
31 34 30 35 33 35 105 l0 74 -85 0 -85 0 0 -74z m150 -5 c0 -47 -8 -64 -42
-90 -17 -13 -18 -8 -18 66 l0 80 30 -5 c28 -4 30 -7 30 -51z"/>
<path d="M525 1985 c9 -44 23 -53 35 -21 14 38 12 56 -4 28 l-12 -23 -12 23
c-12 22 -12 21 -7 -7z"/>
<path d="M801 1975 c0 -38 1 -39 11 -15 11 25 11 25 15 3 5 -29 23 -30 23 -3
0 11 -8 24 -17 27 -10 4 -21 11 -25 17 -4 6 -7 -7 -7 -29z"/>
<path d="M580 1985 c-16 -19 -5 -47 17 -43 22 4 29 43 9 51 -8 3 -20 -1 -26
-8z m30 -26 c0 -5 -4 -9 -10 -9 -5 0 -10 7 -10 16 0 8 5 12 10 9 6 -3 10 -10
10 -16z"/>
<path d="M749 1984 c-10 -12 -9 -18 4 -32 14 -13 19 -14 29 -3 11 11 10 13 -4
8 -12 -4 -18 -1 -18 8 0 7 8 15 18 17 16 3 16 4 0 10 -10 4 -22 1 -29 -8z"/>
<path d="M1136 1991 c-3 -4 -19 -6 -36 -3 -29 4 -30 3 -28 -28 3 -41 17 -49
38 -22 13 15 20 18 29 9 8 -8 14 -8 24 2 10 10 9 11 -5 6 -13 -5 -18 -2 -18
10 0 11 5 15 15 11 8 -3 15 -1 15 3 0 12 -28 22 -34 12z m-36 -21 c0 -5 -4
-10 -10 -10 -5 0 -10 5 -10 10 0 6 5 10 10 10 6 0 10 -4 10 -10z"/>
<path d="M631 1963 c0 -16 3 -22 6 -13 3 8 10 21 16 28 7 8 5 12 -7 12 -11 0
-16 -8 -15 -27z"/>
<path d="M673 1965 c0 -14 5 -25 13 -25 19 0 29 21 14 30 -10 6 -9 9 1 13 9 3
6 6 -7 6 -16 1 -21 -5 -21 -24z"/>
<path d="M722 1965 c0 -16 2 -22 5 -12 2 9 2 23 0 30 -3 6 -5 -1 -5 -18z"/>
<path d="M860 1970 c0 -24 18 -36 33 -21 9 9 8 11 -4 6 -10 -4 -16 0 -16 10 0
21 13 19 35 -6 l19 -20 5 24 c4 23 2 25 -34 25 -31 1 -38 -3 -38 -18z"/>
<path d="M953 1970 c1 -17 9 -26 25 -28 18 -3 22 1 22 22 0 32 -17 34 -23 4
-4 -23 -4 -23 -15 2 l-12 25 3 -25z"/>
<path d="M1011 1963 l0 -28 11 25 11 25 7 -25 c6 -21 8 -22 15 -8 9 22 -1 38
-26 38 -14 0 -19 -7 -18 -27z"/>
<path d="M1180 1965 c0 -31 8 -32 20 -2 6 16 9 17 9 5 1 -28 21 -31 21 -4 0
21 -5 26 -25 26 -20 0 -25 -5 -25 -25z"/>
<path d="M524 1581 c8 -43 14 -50 27 -31 8 11 12 12 16 3 7 -19 23 -16 23 4 0
15 1 15 14 -2 8 -11 19 -16 30 -12 23 9 16 42 -9 42 -11 0 -23 7 -27 15 -5 12
-7 12 -7 -2 -1 -22 -21 -24 -21 -3 0 21 -20 19 -20 -2 -1 -16 -2 -16 -17 2
-15 19 -15 18 -9 -14z"/>
<path d="M690 1602 c0 -7 -7 -12 -15 -12 -10 0 -15 -9 -14 -27 2 -24 2 -25 6
-5 5 27 23 29 23 2 0 -11 4 -20 8 -20 9 0 7 58 -2 67 -3 4 -6 1 -6 -5z"/>
<path d="M276 1579 c-17 -17 -18 -19 -3 -19 9 0 17 -7 17 -15 0 -8 5 -15 10
-15 6 0 10 6 10 14 0 8 6 16 12 18 9 3 8 9 -4 21 -20 20 -18 21 -42 -4z"/>
<path d="M724 1576 c-8 -20 3 -36 24 -35 14 0 13 2 -3 9 -19 8 -19 9 3 9 14 1
22 6 20 14 -7 18 -37 21 -44 3z"/>
<path d="M781 1562 l0 -27 11 25 10 25 9 -22 c4 -13 16 -23 26 -22 16 0 16 1
-2 9 -19 8 -19 9 3 9 38 1 19 26 -21 28 -34 2 -37 0 -36 -25z"/>
<path d="M398 1563 c-25 -6 -23 -30 3 -38 30 -10 89 3 89 19 0 21 -48 31 -92
19z"/>
<path d="M380 1508 c0 -14 88 -13 102 0 4 4 -18 7 -48 7 -29 0 -54 -3 -54 -7z"/>
<path d="M245 1500 c-12 -20 11 -31 56 -28 31 2 44 7 44 18 0 19 -89 27 -100
10z"/>
<path d="M521 1488 c-2 -27 19 -72 28 -62 5 5 12 25 15 44 l6 35 -13 -28 -13
-27 -11 27 c-7 18 -11 22 -12 11z"/>
<path d="M781 1492 c-1 -8 -6 -10 -13 -6 -7 4 -10 4 -6 -1 4 -4 3 -14 -4 -22
-9 -11 -8 -18 5 -31 26 -25 43 -2 30 40 -6 18 -11 27 -12 20z m9 -43 c0 -5 -4
-9 -10 -9 -5 0 -10 7 -10 16 0 8 5 12 10 9 6 -3 10 -10 10 -16z"/>
<path d="M386 1478 c3 -4 25 -8 49 -8 24 0 46 4 49 8 2 4 -20 8 -49 8 -29 0
-51 -4 -49 -8z"/>
<path d="M1195 1474 c-20 -8 -34 -9 -42 -2 -16 13 -33 2 -33 -22 0 -24 18 -36
33 -21 8 8 7 11 -6 11 -11 0 -14 5 -11 15 5 13 9 12 24 -5 20 -24 30 -25 30
-6 0 27 20 27 30 0 14 -35 20 -28 12 12 -7 30 -8 30 -37 18z"/>
<path d="M583 1473 c-18 -7 -16 -28 2 -43 12 -10 19 -10 27 -2 9 9 8 12 -5 12
-10 0 -17 8 -17 18 0 14 2 15 10 2 5 -8 12 -11 15 -8 8 8 -3 28 -13 27 -4 0
-13 -3 -19 -6z"/>
<path d="M630 1446 l0 -31 15 29 c18 35 18 33 0 33 -10 0 -15 -10 -15 -31z"/>
<path d="M671 1445 c1 -21 3 -24 6 -10 8 33 23 42 24 15 l0 -25 11 25 c11 25
11 25 15 3 3 -13 8 -23 12 -23 5 0 6 11 4 23 -4 20 -11 24 -39 23 -31 -1 -34
-3 -33 -31z"/>
<path d="M821 1467 c-13 -13 -2 -37 18 -38 12 0 12 -2 -4 -9 -19 -8 -19 -9 3
-9 18 -1 22 4 22 32 0 34 -18 45 -39 24z m29 -18 c0 -5 -4 -9 -10 -9 -5 0 -10
7 -10 16 0 8 5 12 10 9 6 -3 10 -10 10 -16z"/>
<path d="M880 1464 c-18 -21 13 -55 32 -36 9 9 8 12 -5 12 -10 0 -17 8 -17 18
0 14 2 15 10 2 5 -8 12 -11 15 -8 8 8 -3 28 -14 28 -5 0 -14 -7 -21 -16z"/>
<path d="M931 1446 c1 -21 3 -25 6 -11 8 31 23 42 23 17 0 -12 5 -22 10 -22
12 0 13 20 2 36 -4 6 -15 11 -24 11 -14 0 -18 -8 -17 -31z"/>
<path d="M994 1469 c-4 -7 -2 -15 4 -17 7 -2 12 -8 12 -13 0 -6 -6 -7 -12 -3
-10 5 -10 4 -1 -6 16 -17 33 -4 29 22 -3 26 -21 34 -32 17z"/>
<path d="M1041 1463 c0 -12 4 -25 10 -29 13 -7 29 13 29 36 -1 12 -4 11 -14
-3 -14 -18 -14 -18 -19 0 -4 15 -5 14 -6 -4z"/>
<path d="M1092 1459 c-7 -12 -11 -24 -7 -27 7 -8 25 17 25 36 0 17 -3 15 -18
-9z"/>
<path d="M1250 1465 c-11 -13 -11 -19 2 -32 10 -9 21 -12 29 -7 9 5 8 9 -7 15
-18 7 -18 8 -1 8 10 1 17 6 15 13 -7 19 -24 20 -38 3z"/>
<path d="M243 1455 c5 -13 87 -19 99 -7 7 7 -10 11 -46 14 -34 2 -55 -1 -53
-7z"/>
<path d="M383 1457 c5 -16 99 -16 104 0 3 8 -4 9 -24 4 -15 -4 -41 -4 -56 0
-20 6 -27 5 -24 -4z"/>
<path d="M302 1132 c-66 -25 -46 -37 63 -37 111 0 130 12 58 38 -57 20 -65 20
-121 -1z"/>
<path d="M520 1060 c0 -16 5 -30 10 -30 6 0 10 5 10 12 0 6 9 3 20 -7 11 -10
20 -13 20 -7 0 6 -5 14 -11 18 -6 3 -8 15 -6 26 4 16 3 17 -9 7 -10 -8 -14 -8
-14 0 0 6 -4 11 -10 11 -5 0 -10 -13 -10 -30z"/>
<path d="M702 1079 c-17 -6 -22 -15 -20 -31 2 -12 8 -23 13 -25 19 -6 37 14
33 39 -3 22 -6 24 -26 17z m16 -30 c-2 -6 -8 -10 -13 -10 -5 0 -11 4 -13 10
-2 6 4 11 13 11 9 0 15 -5 13 -11z"/>
<path d="M743 1055 c0 -22 2 -30 4 -17 2 12 2 30 0 40 -3 9 -5 -1 -4 -23z"/>
<path d="M766 1082 c-6 -10 9 -62 18 -62 6 0 1 58 -6 65 -3 3 -9 2 -12 -3z"/>
<path d="M290 1044 c0 -19 -7 -42 -15 -50 -32 -33 -18 -39 91 -39 101 0 105 1
98 20 -3 11 -9 39 -11 63 -7 57 -33 59 -33 2 0 -22 -4 -40 -10 -40 -5 0 -10
18 -10 40 0 57 -27 55 -33 -2 l-4 -43 -1 43 c-1 30 -6 42 -17 42 -11 0 -15
-11 -15 -40 0 -22 -4 -40 -10 -40 -5 0 -10 18 -10 40 0 22 -4 40 -10 40 -5 0
-10 -16 -10 -36z"/>
<path d="M591 1051 c1 -17 3 -20 6 -8 6 22 11 22 32 -5 20 -24 41 -17 41 12 0
25 -17 35 -35 20 -8 -7 -15 -8 -15 -3 0 5 -7 10 -15 10 -10 0 -15 -9 -14 -26z"/>
<path d="M804 1066 c-8 -22 3 -49 19 -43 6 2 12 14 12 27 0 27 -22 39 -31 16z
m26 -26 c0 -5 -2 -10 -4 -10 -3 0 -8 5 -11 10 -3 6 -1 10 4 10 6 0 11 -4 11
-10z"/>
<path d="M323 691 c-3 -12 -15 -21 -32 -23 -25 -3 -26 -5 -29 -80 -2 -49 1
-78 8 -78 5 -1 48 -1 95 -1 47 0 90 0 95 1 7 0 10 29 8 78 -3 75 -4 77 -29 80
-17 2 -29 11 -32 23 -4 14 -14 19 -42 19 -28 0 -38 -5 -42 -19z m67 -11 c0 -5
-11 -10 -25 -10 -14 0 -25 5 -25 10 0 6 11 10 25 10 14 0 25 -4 25 -10z"/>
<path d="M527 634 c-13 -14 -7 -31 16 -43 l22 -12 -23 5 c-15 3 -22 0 -19 -7
6 -19 41 -14 45 6 2 10 -5 21 -20 27 l-23 11 23 -5 c15 -3 22 0 19 7 -4 14
-30 21 -40 11z"/>
<path d="M957 633 c-11 -10 -8 -63 3 -63 6 0 10 5 10 10 0 6 6 10 14 10 22 0
30 19 16 35 -13 16 -32 19 -43 8z m33 -23 c0 -5 -4 -10 -10 -10 -5 0 -10 5
-10 10 0 6 5 10 10 10 6 0 10 -4 10 -10z"/>
<path d="M1150 631 c0 -5 -9 -11 -20 -14 -19 -5 -30 -46 -12 -48 4 0 15 -2 25
-4 14 -3 17 4 17 36 0 21 -2 39 -5 39 -3 0 -5 -4 -5 -9z m-5 -51 c-5 -8 -11
-8 -17 -2 -6 6 -7 16 -3 22 5 8 11 8 17 2 6 -6 7 -16 3 -22z"/>
<path d="M1232 600 c-1 -29 1 -40 7 -31 5 7 13 11 19 7 5 -3 10 5 10 19 0 20
-3 23 -13 15 -10 -9 -15 -6 -18 12 -2 13 -5 3 -5 -22z"/>
<path d="M750 601 c0 -17 5 -33 10 -36 6 -4 10 8 10 29 0 20 -4 36 -10 36 -5
0 -10 -13 -10 -29z"/>
<path d="M1288 625 c-7 -7 2 -54 12 -60 4 -3 7 8 6 24 -1 31 -9 45 -18 36z"/>
<path d="M590 605 c-11 -13 -11 -19 3 -33 20 -19 41 -5 35 24 -4 24 -22 28
-38 9z m22 -27 c-9 -9 -12 -7 -12 12 0 19 3 21 12 12 9 -9 9 -15 0 -24z"/>
<path d="M641 591 l0 -26 11 25 c11 25 11 25 15 3 5 -24 23 -32 23 -10 0 20
-14 34 -32 34 -13 0 -18 -8 -17 -26z"/>
<path d="M704 609 c-4 -7 -2 -15 4 -17 7 -2 12 -8 12 -13 0 -6 -6 -7 -12 -3
-10 5 -10 4 -1 -6 16 -17 33 -4 29 22 -3 26 -21 34 -32 17z"/>
<path d="M814 605 c-8 -19 3 -35 24 -36 11 -1 8 -4 -8 -10 l-25 -8 25 2 c20 2
26 8 28 32 2 25 -1 31 -18 32 -12 1 -23 -4 -26 -12z m27 -18 c-13 -13 -26 -3
-16 12 3 6 11 8 17 5 6 -4 6 -10 -1 -17z"/>
<path d="M877 614 c-11 -11 -8 -42 4 -50 6 -3 16 -1 22 6 9 8 9 11 1 8 -12 -3
-14 1 -14 25 0 8 4 7 11 -3 9 -12 10 -12 7 -1 -5 17 -21 25 -31 15z"/>
<path d="M1032 611 c-8 -5 -12 -16 -10 -25 2 -12 6 -10 15 9 6 14 10 25 10 25
-1 0 -8 -4 -15 -9z"/>
<path d="M1060 605 c-11 -13 -11 -19 3 -33 20 -19 41 -5 35 24 -4 24 -22 28
-38 9z m25 -25 c-5 -8 -11 -8 -17 -2 -6 6 -7 16 -3 22 5 8 11 8 17 2 6 -6 7
-16 3 -22z"/>
<path d="M1170 598 c0 -15 4 -29 9 -32 16 -10 41 5 41 25 0 27 -20 24 -21 -3
-1 -21 -2 -20 -14 7 l-14 30 -1 -27z"/>
<path d="M1327 614 c-11 -11 -8 -42 4 -50 6 -3 16 -1 22 6 9 10 9 11 0 6 -6
-3 -14 -2 -18 4 -3 5 1 10 10 10 9 0 15 5 13 12 -5 14 -22 21 -31 12z"/>
<path d="M792 590 c0 -14 2 -19 5 -12 2 6 2 18 0 25 -3 6 -5 1 -5 -13z"/>
<path d="M370 199 l0 -49 50 0 50 0 -11 27 c-14 38 -26 50 -60 62 l-29 10 0
-50z"/>
</g>
</svg>
